<svg width="48" height="48" viewBox="0 0 48 48" fill="none" xmlns="http://www.w3.org/2000/svg">
<g id="fluent:conference-room-24-regular">
<path id="Vector" d="M21.642 4.006L21.842 4.04L38.842 8.04C39.137 8.10902 39.4042 8.26578 39.6084 8.48962C39.8126 8.71346 39.9443 8.99389 39.986 9.294L40 9.5V38.5C40.0001 38.803 39.9085 39.099 39.7371 39.3489C39.5657 39.5988 39.3227 39.7909 39.04 39.9L38.844 39.96L21.844 43.96C21.6406 44.0079 21.4294 44.0128 21.224 43.9743C21.0186 43.9359 20.8235 43.8549 20.6512 43.7367C20.4789 43.6184 20.3333 43.4655 20.2235 43.2877C20.1138 43.1098 20.0424 42.911 20.014 42.704L20 42.5V5.5C19.9997 5.11136 20.1503 4.73779 20.4201 4.45798C20.6898 4.17818 21.0576 4.01399 21.446 4L21.642 4.006ZM23 7.394V40.606L37 37.312V10.688L23 7.394ZM18 8V11H11V37H18V40H9.5C9.13752 40 8.78732 39.8687 8.51414 39.6305C8.24096 39.3922 8.0633 39.0631 8.014 38.704L8 38.5V9.5C8.00002 9.13752 8.13129 8.78732 8.36953 8.51414C8.60778 8.24096 8.93689 8.0633 9.296 8.014L9.5 8H18ZM28 22C28.5304 22 29.0391 22.2107 29.4142 22.5858C29.7893 22.9609 30 23.4696 30 24C30 24.5304 29.7893 25.0391 29.4142 25.4142C29.0391 25.7893 28.5304 26 28 26C27.4696 26 26.9609 25.7893 26.5858 25.4142C26.2107 25.0391 26 24.5304 26 24C26 23.4696 26.2107 22.9609 26.5858 22.5858C26.9609 22.2107 27.4696 22 28 22Z" fill="#F9614F"/>
</g>
</svg>
